<svg width="40px" height="40px" viewBox="0 0 500 500" version="1.1" xmlns="http://www.w3.org/2000/svg">
  <title>letterboxd-logo-v-pos-rgb</title>
  <desc>Created with Sketch.</desc>
  <g id="letterboxd-logo-v-pos-rgb" stroke="none" stroke-width="1" fill="none" fill-rule="evenodd" transform="matrix(1, 0, 0, 1, 1, 155.5)">
    <g id="Vertical-Lockup" transform="translate(60.000000, 46.000000)">
      <g id="Dots" transform="translate(58.000000, 0.000000)">
        <ellipse id="Blue" fill="#40BCF4" cx="213.426966" cy="48.5" rx="48.5730337" ry="48.5"/>
        <ellipse id="Green" fill="#00E054" cx="131" cy="48.5" rx="48.5730337" ry="48.5"/>
        <ellipse id="Orange" fill="#FF8000" cx="48.5730337" cy="48.5" rx="48.5730337" ry="48.5"/>
        <path d="M89.7865169,74.1788779 C85.1226166,66.7319256 82.4269663,57.9300104 82.4269663,48.499439 C82.4269663,39.0688676 85.1226166,30.2669524 89.7865169,22.82 C94.4504171,30.2669524 97.1460674,39.0688676 97.1460674,48.499439 C97.1460674,57.9300104 94.4504171,66.7319256 89.7865169,74.1788779 Z" id="Overlap" fill="#556677"/>
        <path d="M172.213483,22.82 C176.877383,30.2669524 179.573034,39.0688676 179.573034,48.499439 C179.573034,57.9300104 176.877383,66.7319256 172.213483,74.1788779 C167.549583,66.7319256 164.853933,57.9300104 164.853933,48.499439 C164.853933,39.0688676 167.549583,30.2669524 172.213483,22.82 Z" id="Overlap" fill="#556677"/>
      </g>
    </g>
  </g>
</svg>
