<?xml version="1.0" encoding="utf-8"?>
<!-- Generator: Adobe Adobe Illustrator 24.2.0, SVG Export Plug-In . SVG Version: 6.00 Build 0)  -->
<svg version="1.1" id="Layer_1" xmlns="http://www.w3.org/2000/svg" xmlns:xlink="http://www.w3.org/1999/xlink" x="0px" y="0px"
	 width="361.3px" height="347.6px" viewBox="0 0 361.3 347.6" style="enable-background:new 0 0 361.3 347.6;" xml:space="preserve"
	>
<style type="text/css">
	.st0{fill:#8000FF;}
	.st1{fill:#FBF9FF;}
</style>
<path class="st0" d="M341.8,84c-2.9-3.8-6-7.3-9.4-10.6c-0.9-1-42.2-42.2-43.2-43.2C270.8,10.9,244.5,0,215.4,0h-138
	C66.7,0,57.4,7.6,55.2,18L0.5,275.5c-1.4,6.5,0.2,13,4.3,18.1c0.9,1.1,45.1,45.3,46.2,46.2c4.1,5,10.1,7.8,16.7,7.8
	c4.3,0,8.5-1.3,12.2-3.6l92.9-60.1h42.9c62.4,0,124.4-46.9,141.2-106.9C366.3,142.9,360.8,109,341.8,84L341.8,84z"/>
<path class="st1" d="M215.4,19.2h-138c-1.5,0-3,1.2-3.3,2.8L49.3,138.3c-0.3,1.5,0.7,2.8,2.2,2.8c29.1,0,57.6-23.5,63.8-52.6l3-13.8
	h85.4c25.9,0,41.9,22.3,33.7,48.7c-7.1,23-31.4,39.9-54.5,39.9h-5.9l8.2-38.7c0.5-2.3-1.8-3.6-4-2.2l-84.7,54.8l7.1-33.3
	c0.3-1.5-0.7-2.8-2.2-2.8c-29.1,0-57.6,23.5-63.8,52.6l-18.2,85.8c-0.5,2.3,1.8,3.6,4,2.2l97.7-63.1h48.6
	c53,0,107.9-39.9,122.7-92.9C308.4,67.7,272.6,19.2,215.4,19.2z"/>
</svg>
